PathFileType	4	(X/Y/Z)	/Users/itak/Documents/Research/Walk-IL/dataset/trc/00374_00011.trc
DataRate	CameraRate	NumFrames	NumMarkers	Units	OrigDataRate	OrigDataStartFrame	OrigNumFrames
100.000000	100.000000	4	54	mm	100.000000	199	532
Frame#	Time	RPSI			LPSI			L3			STRN			T10			C7			CLAV			RBAK			LBAK			LSHO			LUPA			LAEL			LAOL			LWTS			LWPS			LFRA			LIFD			LHPS			LHTS			RSHO			RUPA			RAEL			RAOL			RWTS			RWPS			RFRA			RIFD			RHTS			RHPS			RBHD			LFHD			RFHD			LBHD			LHIP			RHIP			RASI			LASI			LKNE			LTHI			LANK			LTIP			LTOE			LMT1			LMT5			LHEE			RKNE			RTHI			RANK			RTIP			RTOE			RMT1			RMT5			RHEE			*53			
		X1	Y1	Z1	X2	Y2	Z2	X3	Y3	Z3	X4	Y4	Z4	X5	Y5	Z5	X6	Y6	Z6	X7	Y7	Z7	X8	Y8	Z8	X9	Y9	Z9	X10	Y10	Z10	X11	Y11	Z11	X12	Y12	Z12	X13	Y13	Z13	X14	Y14	Z14	X15	Y15	Z15	X16	Y16	Z16	X17	Y17	Z17	X18	Y18	Z18	X19	Y19	Z19	X20	Y20	Z20	X21	Y21	Z21	X22	Y22	Z22	X23	Y23	Z23	X24	Y24	Z24	X25	Y25	Z25	X26	Y26	Z26	X27	Y27	Z27	X28	Y28	Z28	X29	Y29	Z29	X30	Y30	Z30	X31	Y31	Z31	X32	Y32	Z32	X33	Y33	Z33	X34	Y34	Z34	X35	Y35	Z35	X36	Y36	Z36	X37	Y37	Z37	X38	Y38	Z38	X39	Y39	Z39	X40	Y40	Z40	X41	Y41	Z41	X42	Y42	Z42	X43	Y43	Z43	X44	Y44	Z44	X45	Y45	Z45	X46	Y46	Z46	X47	Y47	Z47	X48	Y48	Z48	X49	Y49	Z49	X50	Y50	Z50	X51	Y51	Z51	X52	Y52	Z52	X53	Y53	Z53	X54	Y54	Z54	

200	1.99	-1112.9794921875	959.524658203125	-91.24822235107422	-1113.060546875	966.5369873046875	-221.2246246337891	-1114.002319335938	1030.904296875	-165.8934936523438	-864.583984375	1191.34375	-153.5621032714844	-1108.847412109375	1149.049072265625	-190.6649627685547	-1043.927856445312	1386.596801757812	-202.975341796875	-897.447021484375	1320.085815429688	-161.0038146972656	-1113.224487304688	1248.961547851562	-150.4954681396484	-1033.410034179688	1350.763793945312	-306.7058410644531	-935.5926513671875	1365.922607421875	-337.8855895996094	-923.970947265625	1243.798095703125	-403.8271484375	-865.730712890625	1044.215576171875	-391.2773742675781	-943.1158447265625	1019.533264160156	-364.5299072265625	-737.388671875	856.8027954101562	-256.6536560058594	-746.2098388671875	822.36474609375	-316.0545349121094	-823.6744995117188	947.9669189453125	-369.9116821289062	-698.390869140625	707.2481689453125	-199.1955871582031	-735.6792602539062	757.0779418945312	-289.8413391113281	-702.6229858398438	784.2742309570312	-241.1016235351562	-1028.263549804688	1369.404663085938	-31.24758529663086	-1063.129028320312	1308.488403320312	24.83902359008789	-1114.4287109375	1047.0625	52.47061920166016	-1118.005981445312	1041.96337890625	-41.77010726928711	-1010.003540039062	811.8218994140625	44.54917144775391	-1067.710571289062	798.0313110351562	95.27164459228516	-1102.01513671875	976.8880615234375	70.06543731689453	-1005.68896484375	639.0106811523438	54.80672836303711	-993.0772094726562	709.4628295898438	67.59623718261719	-1058.29443359375	713.9261474609375	98.21624755859375	-1000.822326660156	1587.206298828125	-96.31683349609375	-805.228271484375	1578.06005859375	-168.7822113037109	-840.438232421875	1575.732421875	-73.58181762695312	-977.7611694335938	1589.681030273438	-238.9837646484375	-1036.22998046875	900.8184204101562	-327.7006530761719	-1025.765869140625	908.9581909179688	14.67978954315186	-925.9798583984375	932.7214965820312	-38.9189338684082	-909.681640625	917.8408203125	-276.2414855957031	-1063.482788085938	443.1919555664062	-295.63037109375	-1039.019165039062	580.9049682617188	-308.5225219726562	-1245.893188476562	48.83119201660156	-252.6935882568359	-1154.064208984375	237.3779296875	-284.5662841796875	-1035.405395507812	44.80126571655273	-212.7501525878906	-1098.217163085938	33.69982147216797	-163.8798828125	-1122.039794921875	44.154541015625	-276.6626281738281	-1273.305908203125	46.49497222900391	-181.5789337158203	-811.4257202148438	481.8978271484375	-20.46360206604004	-889.671630859375	729.7069091796875	12.55538272857666	-815.2308959960938	64.37116241455078	-73.35167694091797	-782.9099731445312	360.5061645507812	-33.38037872314453	-619.8203735351562	86.06104278564453	-87.24786376953125	-664.2731323242188	71.34450531005859	-138.29638671875	-720.318603515625	62.61741638183594	-35.73902130126953	-855.0606689453125	60.9896240234375	-128.6854553222656	nan	nan	nan	
201	2	-1106.6025390625	958.2718505859375	-90.88585662841797	-1106.628295898438	965.3325805664062	-220.8431549072266	-1107.270263671875	1029.66015625	-165.5009613037109	-857.8156127929688	1189.353759765625	-153.1143035888672	-1101.80517578125	1147.62841796875	-190.6361694335938	-1036.525146484375	1385.092529296875	-202.8348999023438	-890.309814453125	1318.18408203125	-160.5167236328125	-1106.242065429688	1247.613525390625	-150.5604248046875	-1025.880249023438	1349.25244140625	-306.5763854980469	-927.9403686523438	1364.152099609375	-337.4830017089844	-916.2595825195312	1242.066284179688	-403.5195007324219	-857.5138549804688	1042.6259765625	-390.7541809082031	-935.5765380859375	1017.63232421875	-365.5185546875	-730.7645263671875	856.9034423828125	-252.5493927001953	-737.233154296875	822.27490234375	-312.1851196289062	-815.1447143554688	946.7744140625	-368.3182678222656	-691.4746704101562	708.1620483398438	-193.3478240966797	-726.685791015625	757.134033203125	-285.4647827148438	-695.4838256835938	784.948974609375	-235.6824035644531	-1021.317749023438	1367.80615234375	-31.04668807983398	-1056.70458984375	1307.077758789062	24.86380577087402	-1110.673095703125	1046.125244140625	51.22330856323242	-1113.11181640625	1041.22216796875	-43.06864929199219	-1009.393737792969	809.526123046875	44.49954223632812	-1067.905151367188	796.449951171875	94.15748596191406	-1099.363647460938	975.8224487304688	68.82936096191406	-1007.525695800781	636.5944213867188	54.3202018737793	-994.0853881835938	706.927734375	67.51982879638672	-1059.677978515625	712.1929931640625	97.15284729003906	-994.3636474609375	1585.119995117188	-95.88067626953125	-798.2776489257812	1576.91748046875	-167.2399597167969	-834.0833740234375	1574.23583984375	-72.21814727783203	-970.4696655273438	1588.002319335938	-238.3775177001953	-1030.160522460938	899.4192504882812	-327.389892578125	-1019.641235351562	907.3121337890625	15.00914192199707	-919.6832885742188	930.8946533203125	-38.54168319702148	-903.4182739257812	915.9447021484375	-275.8946838378906	-1060.776977539062	442.4494323730469	-295.3567199707031	-1034.9423828125	579.7844848632812	-308.2528686523438	-1245.759033203125	49.04740142822266	-252.5607757568359	-1152.741088867188	237.1419830322266	-284.4309692382812	-1035.279907226562	44.61300277709961	-212.6996459960938	-1098.22802734375	33.62239837646484	-163.8091430664062	-1122.01318359375	44.20466995239258	-276.5727844238281	-1273.2744140625	46.90089797973633	-181.4909973144531	-806.497802734375	479.2515563964844	-21.13862991333008	-884.5466918945312	727.2828369140625	12.77240180969238	-792.9165649414062	62.16725921630859	-73.05867004394531	-773.4756469726562	359.4185180664062	-33.67671203613281	-598.2972412109375	90.45520782470703	-86.17702484130859	-642.0634765625	74.24333953857422	-137.2219085693359	-698.2504272460938	63.69870376586914	-34.92116928100586	-832.2184448242188	57.06174850463867	-128.5744323730469	nan	nan	nan	
202	2.01	-1100.11572265625	956.795654296875	-90.50952911376953	-1100.04833984375	963.9417724609375	-220.4496765136719	-1100.451782226562	1028.234252929688	-165.0596160888672	-850.9176025390625	1187.229736328125	-152.6055145263672	-1094.720092773438	1146.054077148438	-190.4867401123047	-1028.9970703125	1383.453491210938	-202.5435943603516	-883.0321044921875	1316.154541015625	-159.9520874023438	-1099.124267578125	1246.14501953125	-150.4466857910156	-1018.281921386719	1347.612915039062	-306.2991943359375	-920.2352905273438	1362.250366210938	-336.9929809570312	-908.576416015625	1240.174682617188	-403.0970458984375	-849.3479614257812	1040.899658203125	-390.1305541992188	-927.9851684570312	1015.566223144531	-366.2869567871094	-724.2302856445312	856.690673828125	-248.6133728027344	-728.4002075195312	821.998291015625	-308.4971923828125	-806.6927490234375	945.433837890625	-366.70849609375	-684.6162109375	708.6510009765625	-188.0458068847656	-717.8118896484375	756.97705078125	-281.4107666015625	-688.459228515625	785.2998046875	-230.6184387207031	-1014.152099609375	1366.07568359375	-30.69349479675293	-1050.016235351562	1305.51953125	25.05698776245117	-1106.535278320312	1045.05615234375	50.19607543945312	-1107.98486328125	1040.35009765625	-44.13252258300781	-1008.674865722656	807.0512084960938	44.48035049438477	-1067.912719726562	794.7655639648438	93.18148040771484	-1096.3349609375	974.6441650390625	67.78858184814453	-1009.50244140625	634.0335083007812	53.77598190307617	-995.1190185546875	704.1948852539062	67.41347503662109	-1060.9736328125	710.3621826171875	96.14134979248047	-987.7422485351562	1582.93701171875	-95.37490081787109	-791.2073364257812	1575.6396484375	-165.6839447021484	-827.5617065429688	1572.649536132812	-70.83433532714844	-963.070068359375	1586.174072265625	-237.7064361572266	-1023.877136230469	897.877197265625	-327.054443359375	-1013.436828613281	905.4232788085938	15.34757232666016	-913.2777709960938	928.8658447265625	-38.09534454345703	-896.97802734375	913.9259643554688	-275.4672546386719	-1057.975463867188	441.6562194824219	-295.0605773925781	-1030.780517578125	578.602294921875	-307.9463806152344	-1245.609619140625	49.30136871337891	-252.3988952636719	-1151.375244140625	236.9185638427734	-284.2625427246094	-1035.128784179688	44.39494323730469	-212.6576538085938	-1098.2333984375	33.5545539855957	-163.7426452636719	-1121.982299804688	44.26542282104492	-276.4749755859375	-1273.229125976562	47.38613510131836	-181.3752899169922	-801.4063110351562	476.4822998046875	-21.739013671875	-879.3712768554688	724.6068725585938	13.10297393798828	-771.1572875976562	60.45819473266602	-72.54190063476562	-764.184326171875	358.3876037597656	-33.86732864379883	-577.5086669921875	95.24351501464844	-84.92652893066406	-620.5568237304688	77.57902526855469	-135.9577941894531	-676.8112182617188	65.17784118652344	-33.90020751953125	-810.0371704101562	53.76904678344727	-128.2139587402344	nan	nan	nan	
203	2.02	-1093.517456054688	955.1251831054688	-90.11911010742188	-1093.312377929688	962.3992919921875	-220.0426635742188	-1093.53955078125	1026.654907226562	-164.5752258300781	-843.8798828125	1184.997680664062	-152.0229949951172	-1087.57275390625	1144.356811523438	-190.2171630859375	-1021.343078613281	1381.699951171875	-202.1017913818359	-875.6126098632812	1314.022583007812	-159.2978820800781	-1091.872192382812	1244.568481445312	-150.1674346923828	-1010.601867675781	1345.870239257812	-305.8753051757812	-912.4603881835938	1360.246215820312	-336.4078369140625	-900.9054565429688	1238.15478515625	-402.5564880371094	-841.2540893554688	1039.05224609375	-389.4019165039062	-920.358642578125	1013.37744140625	-366.7962036132812	-717.7633056640625	856.152587890625	-244.8989715576172	-719.7499389648438	821.5009155273438	-305.0331420898438	-798.3500366210938	943.9454345703125	-365.0943908691406	-677.7929077148438	708.7017822265625	-183.3057250976562	-709.095947265625	756.5761108398438	-277.6983642578125	-681.5278930664062	785.3026123046875	-225.9619598388672	-1006.784606933594	1364.224243164062	-30.18749237060547	-1043.083618164062	1303.817504882812	25.41313171386719	-1102.015991210938	1043.851318359375	49.39111709594727	-1102.62353515625	1039.34619140625	-44.96194458007812	-1007.816467285156	804.4046020507812	44.48060989379883	-1067.70458984375	792.993896484375	92.35482025146484	-1092.918579101562	973.3531494140625	66.95004272460938	-1011.591613769531	631.3523559570312	53.18253326416016	-996.1490478515625	701.2838134765625	67.27632141113281	-1062.160766601562	708.4548950195312	95.20627593994141	-980.9522705078125	1580.687255859375	-94.79403686523438	-784.0104370117188	1574.234375	-164.1083984375	-820.8687133789062	1570.982299804688	-69.42469024658203	-955.5586547851562	1584.225341796875	-236.9680328369141	-1017.372314453125	896.21826171875	-326.69091796875	-1007.141418457031	903.3306884765625	15.69814682006836	-906.7615966796875	926.670654296875	-37.58005142211914	-890.3584594726562	911.8038940429688	-274.9593811035156	-1055.107055664062	440.830078125	-294.7488098144531	-1026.576538085938	577.3878784179688	-307.6088256835938	-1245.439575195312	49.60591506958008	-252.20458984375	-1149.976806640625	236.727294921875	-284.0546264648438	-1034.957763671875	44.15166473388672	-212.6253662109375	-1098.231201171875	33.49542617797852	-163.6806640625	-1121.945434570312	44.34133148193359	-276.3687438964844	-1273.167358398438	47.96782684326172	-181.2284088134766	-796.09814453125	473.65380859375	-22.25329208374023	-874.0950927734375	721.751953125	13.56797218322754	-750.1591186523438	59.18637084960938	-71.8546142578125	-755.0443115234375	357.4224853515625	-33.94651794433594	-557.6094970703125	100.2327575683594	-83.48788452148438	-599.9136352539062	81.19612121582031	-134.5211944580078	-656.1914672851562	66.93550872802734	-32.70468521118164	-788.7214965820312	51.09419250488281	-127.6690673828125	nan	nan	nan	
